<svg width="60" height="12" viewBox="0 0 60 12" fill="none" xmlns="http://www.w3.org/2000/svg">
<path d="M0.752046 12V0.0952382H10.2759V2.47619H12.6568V4.85714H10.2759V7.2381H5.51395V12H0.752046ZM5.51395 4.85714H7.8949V2.47619H5.51395V4.85714ZM19.4598 12V9.61905H17.0789V2.47619H19.4598V0.0952382H26.6027V2.47619H28.9836V9.61905H26.6027V12H19.4598ZM21.8408 9.61905H24.2217V2.47619H21.8408V9.61905ZM33.4057 12V9.61905H40.5485V7.2381H35.7866V4.85714H33.4057V2.47619H35.7866V0.0952382H45.3105V2.47619H38.1676V4.85714H42.9295V7.2381H45.3105V9.61905H42.9295V12H33.4057ZM52.1135 12V2.47619H49.7325V0.0952382H59.2563V2.47619H56.8754V12H52.1135Z" fill="#150714"/>
</svg>

