<svg width="425" height="58" viewBox="0 0 425 58" fill="none" xmlns="http://www.w3.org/2000/svg">
<path d="M425 5C425 2.23858 422.761 0 420 0H58V58H420C422.761 58 425 55.7614 425 53V5Z" fill="#4285F4"/>
<path d="M149.737 32.4762C149.737 31.7262 149.471 31.1481 148.94 30.7418C148.417 30.3356 147.467 29.9254 146.092 29.5114C144.717 29.0973 143.624 28.6364 142.811 28.1285C141.256 27.152 140.479 25.8785 140.479 24.3082C140.479 22.9332 141.038 21.8004 142.155 20.9098C143.28 20.0192 144.737 19.5739 146.526 19.5739C147.713 19.5739 148.772 19.7926 149.702 20.2301C150.631 20.6676 151.362 21.2926 151.893 22.1051C152.424 22.9098 152.69 23.8043 152.69 24.7887H149.737C149.737 23.8981 149.456 23.2028 148.893 22.7028C148.338 22.1949 147.542 21.941 146.503 21.941C145.534 21.941 144.78 22.1481 144.241 22.5621C143.71 22.9762 143.444 23.5543 143.444 24.2965C143.444 24.9215 143.733 25.4449 144.311 25.8668C144.889 26.2809 145.842 26.6871 147.171 27.0856C148.499 27.4762 149.565 27.9254 150.37 28.4332C151.174 28.9332 151.764 29.5114 152.139 30.1676C152.514 30.816 152.702 31.5778 152.702 32.4528C152.702 33.8746 152.155 35.0074 151.061 35.8512C149.975 36.6871 148.499 37.1051 146.631 37.1051C145.397 37.1051 144.26 36.8785 143.221 36.4254C142.19 35.9645 141.385 35.3317 140.807 34.527C140.237 33.7223 139.952 32.7848 139.952 31.7145H142.917C142.917 32.6832 143.237 33.4332 143.878 33.9645C144.518 34.4957 145.436 34.7614 146.631 34.7614C147.663 34.7614 148.436 34.5543 148.952 34.1403C149.475 33.7184 149.737 33.1637 149.737 32.4762ZM157.724 36.8707H154.876V24.191H157.724V36.8707ZM154.7 20.8981C154.7 20.4606 154.837 20.0973 155.111 19.8082C155.392 19.5192 155.79 19.3746 156.306 19.3746C156.822 19.3746 157.22 19.5192 157.501 19.8082C157.782 20.0973 157.923 20.4606 157.923 20.8981C157.923 21.3278 157.782 21.6871 157.501 21.9762C157.22 22.2574 156.822 22.3981 156.306 22.3981C155.79 22.3981 155.392 22.2574 155.111 21.9762C154.837 21.6871 154.7 21.3278 154.7 20.8981ZM160.004 30.4371C160.004 28.4684 160.465 26.8981 161.387 25.7262C162.316 24.5465 163.547 23.9567 165.078 23.9567C166.523 23.9567 167.66 24.4606 168.488 25.4684L168.617 24.191H171.184V36.484C171.184 38.1481 170.664 39.4606 169.625 40.4215C168.594 41.3824 167.199 41.8629 165.441 41.8629C164.512 41.8629 163.602 41.6676 162.711 41.277C161.828 40.8942 161.156 40.3903 160.695 39.7653L162.043 38.0543C162.918 39.0934 163.996 39.6129 165.277 39.6129C166.223 39.6129 166.969 39.3551 167.516 38.8395C168.062 38.3317 168.336 37.5817 168.336 36.5895V35.734C167.516 36.6481 166.422 37.1051 165.055 37.1051C163.57 37.1051 162.355 36.5153 161.41 35.3356C160.473 34.1559 160.004 32.5231 160.004 30.4371ZM162.84 30.6832C162.84 31.9567 163.098 32.9606 163.613 33.6949C164.137 34.4215 164.859 34.7848 165.781 34.7848C166.93 34.7848 167.781 34.2926 168.336 33.3082V27.7301C167.797 26.7692 166.953 26.2887 165.805 26.2887C164.867 26.2887 164.137 26.6598 163.613 27.402C163.098 28.1442 162.84 29.2379 162.84 30.6832ZM176.428 24.191L176.51 25.6559C177.448 24.5231 178.678 23.9567 180.202 23.9567C182.842 23.9567 184.186 25.4684 184.233 28.4918V36.8707H181.385V28.6559C181.385 27.8512 181.21 27.2574 180.858 26.8746C180.514 26.484 179.948 26.2887 179.159 26.2887C178.01 26.2887 177.155 26.8082 176.592 27.8473V36.8707H173.745V24.191H176.428ZM195.484 36.8707H192.637V24.191H195.484V36.8707ZM192.461 20.8981C192.461 20.4606 192.598 20.0973 192.871 19.8082C193.152 19.5192 193.551 19.3746 194.066 19.3746C194.582 19.3746 194.98 19.5192 195.262 19.8082C195.543 20.0973 195.684 20.4606 195.684 20.8981C195.684 21.3278 195.543 21.6871 195.262 21.9762C194.98 22.2574 194.582 22.3981 194.066 22.3981C193.551 22.3981 193.152 22.2574 192.871 21.9762C192.598 21.6871 192.461 21.3278 192.461 20.8981ZM200.905 24.191L200.987 25.6559C201.924 24.5231 203.155 23.9567 204.678 23.9567C207.319 23.9567 208.663 25.4684 208.71 28.4918V36.8707H205.862V28.6559C205.862 27.8512 205.686 27.2574 205.335 26.8746C204.991 26.484 204.424 26.2887 203.635 26.2887C202.487 26.2887 201.631 26.8082 201.069 27.8473V36.8707H198.221V24.191H200.905ZM228.07 32.9449L230.086 24.191H232.863L229.406 36.8707H227.062L224.344 28.1637L221.672 36.8707H219.328L215.859 24.191H218.637L220.687 32.8512L223.289 24.191H225.434L228.07 32.9449ZM237.463 36.8707H234.616V24.191H237.463V36.8707ZM234.44 20.8981C234.44 20.4606 234.577 20.0973 234.85 19.8082C235.131 19.5192 235.53 19.3746 236.046 19.3746C236.561 19.3746 236.96 19.5192 237.241 19.8082C237.522 20.0973 237.663 20.4606 237.663 20.8981C237.663 21.3278 237.522 21.6871 237.241 21.9762C236.96 22.2574 236.561 22.3981 236.046 22.3981C235.53 22.3981 235.131 22.2574 234.85 21.9762C234.577 21.6871 234.44 21.3278 234.44 20.8981ZM243.81 21.109V24.191H246.048V26.3004H243.81V33.3785C243.81 33.8629 243.904 34.2145 244.091 34.4332C244.286 34.6442 244.63 34.7496 245.122 34.7496C245.45 34.7496 245.783 34.7106 246.118 34.6324V36.8356C245.47 37.0153 244.845 37.1051 244.243 37.1051C242.056 37.1051 240.962 35.8981 240.962 33.484V26.3004H238.876V24.191H240.962V21.109H243.81ZM250.707 25.5739C251.637 24.4957 252.812 23.9567 254.234 23.9567C256.937 23.9567 258.309 25.4996 258.348 28.5856V36.8707H255.5V28.691C255.5 27.816 255.309 27.1989 254.926 26.8395C254.551 26.4723 253.996 26.2887 253.262 26.2887C252.121 26.2887 251.269 26.7965 250.707 27.8121V36.8707H247.859V18.8707H250.707V25.5739ZM279.9 34.6559C279.283 35.4606 278.427 36.0699 277.333 36.484C276.24 36.8981 274.997 37.1051 273.607 37.1051C272.177 37.1051 270.911 36.7809 269.81 36.1324C268.708 35.484 267.857 34.5582 267.255 33.3551C266.661 32.1442 266.353 30.734 266.329 29.1246V27.7887C266.329 25.2106 266.947 23.1989 268.181 21.7535C269.415 20.3004 271.138 19.5739 273.349 19.5739C275.247 19.5739 276.755 20.0426 277.872 20.9801C278.99 21.9176 279.661 23.2692 279.888 25.0348H276.982C276.654 22.9801 275.462 21.9528 273.408 21.9528C272.079 21.9528 271.068 22.4332 270.372 23.3942C269.685 24.3473 269.329 25.7496 269.306 27.6012V28.9137C269.306 30.7574 269.693 32.191 270.466 33.2145C271.247 34.2301 272.329 34.7379 273.712 34.7379C275.228 34.7379 276.306 34.3942 276.947 33.7067V30.3668H273.431V28.1168H279.9V34.6559ZM282.016 30.4137C282.016 29.1715 282.262 28.0543 282.754 27.0621C283.246 26.0621 283.937 25.2965 284.828 24.7653C285.719 24.2262 286.742 23.9567 287.898 23.9567C289.609 23.9567 290.996 24.5074 292.059 25.609C293.129 26.7106 293.707 28.1715 293.793 29.9918L293.805 30.6598C293.805 31.9098 293.562 33.027 293.078 34.0114C292.602 34.9957 291.914 35.7574 291.016 36.2965C290.125 36.8356 289.094 37.1051 287.922 37.1051C286.133 37.1051 284.699 36.5114 283.621 35.3239C282.551 34.1285 282.016 32.5387 282.016 30.5543V30.4137ZM284.863 30.6598C284.863 31.9645 285.133 32.9879 285.672 33.7301C286.211 34.4645 286.961 34.8317 287.922 34.8317C288.883 34.8317 289.629 34.4567 290.16 33.7067C290.699 32.9567 290.969 31.859 290.969 30.4137C290.969 29.1324 290.691 28.1168 290.137 27.3668C289.59 26.6168 288.844 26.2418 287.898 26.2418C286.969 26.2418 286.23 26.6129 285.684 27.3551C285.137 28.0895 284.863 29.191 284.863 30.6598ZM295.346 30.4137C295.346 29.1715 295.592 28.0543 296.085 27.0621C296.577 26.0621 297.268 25.2965 298.159 24.7653C299.049 24.2262 300.073 23.9567 301.229 23.9567C302.94 23.9567 304.327 24.5074 305.389 25.609C306.46 26.7106 307.038 28.1715 307.124 29.9918L307.135 30.6598C307.135 31.9098 306.893 33.027 306.409 34.0114C305.932 34.9957 305.245 35.7574 304.346 36.2965C303.456 36.8356 302.424 37.1051 301.253 37.1051C299.463 37.1051 298.03 36.5114 296.952 35.3239C295.881 34.1285 295.346 32.5387 295.346 30.5543V30.4137ZM298.194 30.6598C298.194 31.9645 298.463 32.9879 299.003 33.7301C299.542 34.4645 300.292 34.8317 301.253 34.8317C302.213 34.8317 302.96 34.4567 303.491 33.7067C304.03 32.9567 304.299 31.859 304.299 30.4137C304.299 29.1324 304.022 28.1168 303.467 27.3668C302.921 26.6168 302.174 26.2418 301.229 26.2418C300.299 26.2418 299.561 26.6129 299.014 27.3551C298.467 28.0895 298.194 29.191 298.194 30.6598ZM308.712 30.4371C308.712 28.4684 309.173 26.8981 310.095 25.7262C311.025 24.5465 312.255 23.9567 313.786 23.9567C315.232 23.9567 316.368 24.4606 317.197 25.4684L317.325 24.191H319.892V36.484C319.892 38.1481 319.372 39.4606 318.333 40.4215C317.302 41.3824 315.908 41.8629 314.15 41.8629C313.22 41.8629 312.31 41.6676 311.419 41.277C310.536 40.8942 309.865 40.3903 309.404 39.7653L310.751 38.0543C311.626 39.0934 312.704 39.6129 313.986 39.6129C314.931 39.6129 315.677 39.3551 316.224 38.8395C316.771 38.3317 317.044 37.5817 317.044 36.5895V35.734C316.224 36.6481 315.13 37.1051 313.763 37.1051C312.279 37.1051 311.064 36.5153 310.118 35.3356C309.181 34.1559 308.712 32.5231 308.712 30.4371ZM311.548 30.6832C311.548 31.9567 311.806 32.9606 312.322 33.6949C312.845 34.4215 313.568 34.7848 314.49 34.7848C315.638 34.7848 316.49 34.2926 317.044 33.3082V27.7301C316.505 26.7692 315.661 26.2887 314.513 26.2887C313.575 26.2887 312.845 26.6598 312.322 27.402C311.806 28.1442 311.548 29.2379 311.548 30.6832ZM325.523 36.8707H322.676V18.8707H325.523V36.8707ZM333.885 37.1051C332.081 37.1051 330.616 36.5387 329.491 35.4059C328.374 34.2653 327.815 32.7496 327.815 30.859V30.5074C327.815 29.2418 328.057 28.1129 328.542 27.1207C329.034 26.1207 329.721 25.3434 330.604 24.7887C331.487 24.234 332.471 23.9567 333.557 23.9567C335.284 23.9567 336.616 24.5074 337.553 25.609C338.499 26.7106 338.971 28.2692 338.971 30.2848V31.4332H330.686C330.772 32.4801 331.12 33.3082 331.729 33.9176C332.346 34.527 333.12 34.8317 334.049 34.8317C335.354 34.8317 336.417 34.3043 337.237 33.2496L338.772 34.7145C338.264 35.4723 337.585 36.0621 336.733 36.484C335.889 36.8981 334.94 37.1051 333.885 37.1051ZM333.546 26.2418C332.764 26.2418 332.131 26.5153 331.647 27.0621C331.171 27.609 330.866 28.3707 330.733 29.3473H336.159V29.1364C336.096 28.1832 335.842 27.4645 335.397 26.9801C334.952 26.4879 334.335 26.2418 333.546 26.2418Z" fill="white"/>
<path d="M5 1H57.4199V57H5C2.79086 57 1 55.2091 1 53V5C1 2.79086 2.79086 1 5 1Z" fill="white" stroke="#4285F4" stroke-width="2"/>
<path d="M20.8561 32.5555L19.7809 36.5436L15.8484 36.6276C14.6645 34.4626 14 31.9857 14 29.3529C14 26.8041 14.6222 24.4052 15.7276 22.2942L19.2312 22.9299L20.7655 26.3843C20.4454 27.3139 20.2702 28.3094 20.2702 29.3529C20.2702 30.4804 20.4756 31.5599 20.8561 32.5555Z" fill="#FBBB00"/>
<path d="M44.6563 26.4862C44.8315 27.4158 44.9282 28.3753 44.9282 29.3529C44.9282 30.4504 44.8134 31.5239 44.5899 32.5614C43.8348 36.0818 41.8716 39.1524 39.1473 41.3294L34.7376 41.1075L34.1154 37.2393C35.9216 36.1837 37.3351 34.5405 38.0781 32.5674H29.8024V26.4862H38.1928H44.6563Z" fill="#518EF8"/>
<path d="M39.1473 41.3235C36.4954 43.4405 33.1308 44.706 29.4641 44.706C23.5744 44.706 18.452 41.4375 15.8424 36.6277L20.8562 32.5555C22.1609 36.0159 25.5256 38.4808 29.4641 38.4808C31.1555 38.4808 32.7442 38.025 34.1094 37.2334L39.1473 41.3235Z" fill="#28B446"/>
<path d="M39.3345 17.5324L34.3268 21.6045C32.9194 20.7289 31.2522 20.2251 29.4641 20.2251C25.435 20.2251 22.0099 22.804 20.7656 26.3843L15.7277 22.2882C18.301 17.3645 23.4899 14 29.4641 14C33.2154 14 36.6585 15.3254 39.3345 17.5324Z" fill="#F14336"/>
</svg>
