<svg width="102" height="35" viewBox="0 0 102 35" fill="none" xmlns="http://www.w3.org/2000/svg">
<rect width="102" height="35" fill="#2F112D"/>
<path d="M21.752 23V11.0952H31.2759V13.4762H33.6568V15.8571H31.2759V18.2381H26.514V23H21.752ZM26.514 15.8571H28.8949V13.4762H26.514V15.8571ZM40.4598 23V20.619H38.0789V13.4762H40.4598V11.0952H47.6027V13.4762H49.9836V20.619H47.6027V23H40.4598ZM42.8408 20.619H45.2217V13.4762H42.8408V20.619ZM54.4057 23V20.619H61.5485V18.2381H56.7866V15.8571H54.4057V13.4762H56.7866V11.0952H66.3105V13.4762H59.1676V15.8571H63.9295V18.2381H66.3105V20.619H63.9295V23H54.4057ZM73.1135 23V13.4762H70.7325V11.0952H80.2563V13.4762H77.8754V23H73.1135Z" fill="#150714"/>
</svg>
