<svg width="314" height="209" viewBox="0 0 314 209" fill="none" xmlns="http://www.w3.org/2000/svg">
<rect x="271.889" y="69.5758" width="229.778" height="34.7879" transform="rotate(-180 271.889 69.5758)" fill="#FF865C"/>
<path d="M292.778 97.4061L292.778 104.364L21.2222 104.364L21.2222 97.406L28.1852 97.406L28.1852 90.4485L35.1482 90.4485L35.1482 83.4909L42.1111 83.4909L42.1111 69.5757L271.889 69.5758L271.889 83.4909L278.852 83.4909L278.852 90.4485L285.815 90.4485L285.815 97.4061L292.778 97.4061Z" fill="#FFEA5C"/>
<path d="M271.889 118.279L271.889 139.151L42.1111 139.151L42.1111 118.279L35.1481 118.279L35.1482 111.321L28.1852 111.321L28.1852 104.364L285.815 104.364L285.815 111.321L278.852 111.321L278.852 118.279L271.889 118.279Z" fill="#00DA76"/>
<rect x="271.889" y="173.939" width="229.778" height="34.7879" transform="rotate(-180 271.889 173.939)" fill="#0096CE"/>
<path fill-rule="evenodd" clip-rule="evenodd" d="M56.037 208.727V201.77H35.1482V194.812H28.1852L28.1852 180.897H21.2222L21.2222 118.279H14.2593L14.2593 111.321H7.29631L7.29631 104.364H0.333344L0.333344 97.4061H7.29631L7.29631 90.4485H14.2593L14.2593 83.4909H21.2222L21.2222 27.8303H28.1852L28.1852 13.9152H35.1482V6.9576H56.037L56.037 1.52588e-05L257.963 1.52588e-05V6.9576H278.852V13.9152H285.815V27.8303H292.778V83.4909H299.741V90.4485H306.704V97.4061H313.667V104.364H306.704V111.321H299.741V118.279H292.778V180.897H285.815V194.812H278.852V201.77H257.963V208.727L56.037 208.727ZM42.1111 173.939L42.1111 118.279H35.1482V111.321H28.1852L28.1852 104.364H21.2222V97.4061H28.1852V90.4485H35.1482V83.4909H42.1111L42.1111 34.7879L271.889 34.7879V83.4909H278.852V90.4485H285.815V97.4061L292.778 97.4061V104.364L285.815 104.364V111.321H278.852V118.279H271.889V173.939L42.1111 173.939Z" fill="url(#paint0_linear_3483_65)"/>
<defs>
<linearGradient id="paint0_linear_3483_65" x1="157" y1="208.727" x2="157" y2="1.52588e-05" gradientUnits="userSpaceOnUse">
<stop offset="0.166667" stop-color="#800FFF"/>
<stop offset="0.833333" stop-color="#F50D5A"/>
</linearGradient>
</defs>
</svg>



