<svg width="102" height="10" viewBox="0 0 102 10" fill="none" xmlns="http://www.w3.org/2000/svg">
<path d="M2.80952 10V8.09524H0.904762V0.476191H4.71429V8.09524H6.61905V0.476191H10.4286V8.09524H8.52381V10H2.80952ZM13.8996 10V8.09524H19.6138V6.19048H15.8043V4.28571H13.8996V2.38095H15.8043V0.476191H23.4234V2.38095H17.7091V4.28571H21.5186V6.19048H23.4234V8.09524H21.5186V10H13.8996ZM34.5134 2.38095H30.7039V4.28571H34.5134V6.19048H30.7039V8.09524H34.5134V10H26.8943V0.476191H34.5134V2.38095ZM37.9829 10V0.476191H45.6019V2.38095H47.5067V4.28571H45.6019V8.09524H47.5067V10H43.6972V8.09524H41.7924V10H37.9829ZM41.7924 4.28571H43.6972V2.38095H41.7924V4.28571ZM50.9777 10V0.476191H54.7872V2.38095H56.692V4.28571H58.5967V0.476191H62.4063V10H58.5967V8.09524H56.692V6.19048H54.7872V10H50.9777ZM73.4978 2.38095H75.4025V10H71.593V6.19048H69.6882V10H65.8787V2.38095H67.7835V0.476191H73.4978V2.38095ZM69.6882 4.28571H71.593V2.38095H69.6882V4.28571ZM78.8735 10V0.476191H82.683V2.38095H86.4926V0.476191H90.3021V10H86.4926V6.19048H82.683V10H78.8735ZM101.394 2.38095H97.5841V4.28571H101.394V6.19048H97.5841V8.09524H101.394V10H93.7746V0.476191H101.394V2.38095Z" fill="white"/>
</svg>
