<svg width="273" height="80" viewBox="0 0 273 80" fill="none" xmlns="http://www.w3.org/2000/svg">
<path d="M6.90476 30V24.0476H0.952381V0.238096H12.8571V6.19048H24.7619V0.238096H36.6667V24.0476H30.7143V30H6.90476ZM72.036 6.19048H60.1312V12.1429H72.036V18.0952H60.1312V24.0476H72.036V30H48.2265V0.238096H72.036V6.19048ZM95.4913 24.0476H107.396V30H83.5865V0.238096H95.4913V24.0476ZM124.899 30V24.0476H118.947V6.19048H124.899V0.238096H142.756V6.19048H148.708V12.1429H136.804V6.19048H130.851V24.0476H136.804V18.0952H148.708V24.0476H142.756V30H124.899ZM166.216 30V24.0476H160.264V6.19048H166.216V0.238096H184.073V6.19048H190.025V24.0476H184.073V30H166.216ZM172.168 24.0476H178.121V6.19048H172.168V24.0476ZM201.581 30V0.238096H213.485V6.19048H225.39V0.238096H237.295V30H225.39V18.0952H213.485V30H201.581ZM272.664 6.19048H260.759V12.1429H272.664V18.0952H260.759V24.0476H272.664V30H248.855V0.238096H272.664V6.19048Z" fill="white"/>
<path d="M0.952381 80V50.2381H12.8571V56.1905H18.8095V62.1429H24.7619V50.2381H36.6667V80H24.7619V74.0476H18.8095V68.0952H12.8571V80H0.952381ZM72.036 56.1905H77.9884V80H66.0836V68.0952H60.1312V80H48.2265V56.1905H54.1789V50.2381H72.036V56.1905ZM60.1312 62.1429H66.0836V56.1905H60.1312V62.1429ZM89.5435 80V50.2381H101.448V56.1905H113.353V50.2381H125.258V80H113.353V68.0952H101.448V80H89.5435ZM160.627 56.1905H148.722V62.1429H160.627V68.0952H148.722V74.0476H160.627V80H136.818V50.2381H160.627V56.1905ZM172.178 68.0952V50.2381H184.082V68.0952H172.178ZM172.178 74.0476H184.082V80H172.178V74.0476Z" fill="#F50D5A"/>
</svg>
